<svg width="47" height="47" viewBox="0 0 47 47" fill="none" xmlns="http://www.w3.org/2000/svg">
<path d="M24.6752 28.2C25.6101 28.2 26.5067 28.5714 27.1677 29.2324C27.8288 29.8935 28.2002 30.7901 28.2002 31.725V32.9C28.2002 37.5318 23.8292 42.3 16.4502 42.3C9.0712 42.3 4.7002 37.5318 4.7002 32.9V31.725C4.7002 30.7901 5.07158 29.8935 5.73264 29.2324C6.39371 28.5714 7.29031 28.2 8.2252 28.2H24.6752ZM24.6752 30.55H8.2252C7.91357 30.55 7.6147 30.6738 7.39435 30.8941C7.17399 31.1145 7.0502 31.4134 7.0502 31.725V32.9C7.0502 36.2793 10.4154 39.95 16.4502 39.95C22.485 39.95 25.8502 36.2793 25.8502 32.9V31.725C25.8502 31.4134 25.7264 31.1145 25.506 30.8941C25.2857 30.6738 24.9868 30.55 24.6752 30.55ZM16.4502 12.925C18.1642 12.925 19.8079 13.6059 21.0199 14.8178C22.2318 16.0298 22.9127 17.6735 22.9127 19.3875C22.9127 21.1015 22.2318 22.7452 21.0199 23.9572C19.8079 25.1691 18.1642 25.85 16.4502 25.85C14.7362 25.85 13.0925 25.1691 11.8805 23.9572C10.6686 22.7452 9.9877 21.1015 9.9877 19.3875C9.9877 17.6735 10.6686 16.0298 11.8805 14.8178C13.0925 13.6059 14.7362 12.925 16.4502 12.925ZM37.6002 4.7C38.7855 4.70021 39.927 5.14831 40.796 5.95451C41.665 6.76072 42.1972 7.86549 42.2861 9.0475L42.3002 9.4V14.1C42.3006 15.2858 41.8527 16.4278 41.0465 17.2973C40.2402 18.1667 39.1351 18.6993 37.9527 18.7882L37.6002 18.8H34.0728L31.2575 22.56C30.012 24.2191 27.4881 23.547 27.0816 21.6764L27.0416 21.4155L27.0252 21.15V18.6472L26.8419 18.6002C25.9968 18.3451 25.2406 17.8571 24.66 17.1921C24.0794 16.5271 23.6978 15.712 23.5589 14.8402L23.5119 14.4501L23.5002 14.1V9.4C23.4998 8.21424 23.9476 7.07217 24.7539 6.20271C25.5602 5.33325 26.6653 4.80068 27.8477 4.71175L28.2002 4.7H37.6002ZM16.4502 15.275C15.9101 15.275 15.3754 15.3814 14.8764 15.588C14.3775 15.7947 13.9241 16.0976 13.5422 16.4795C13.1603 16.8614 12.8574 17.3148 12.6507 17.8137C12.4441 18.3127 12.3377 18.8474 12.3377 19.3875C12.3377 19.9276 12.4441 20.4623 12.6507 20.9613C12.8574 21.4602 13.1603 21.9136 13.5422 22.2955C13.9241 22.6774 14.3775 22.9803 14.8764 23.187C15.3754 23.3936 15.9101 23.5 16.4502 23.5C17.5409 23.5 18.5869 23.0667 19.3582 22.2955C20.1294 21.5242 20.5627 20.4782 20.5627 19.3875C20.5627 18.2968 20.1294 17.2508 19.3582 16.4795C18.5869 15.7083 17.5409 15.275 16.4502 15.275ZM37.6002 7.05H28.2002C27.6246 7.05007 27.0691 7.26139 26.6389 7.64388C26.2088 8.02636 25.934 8.55341 25.8666 9.12505L25.8502 9.4V14.1C25.8503 14.6756 26.0616 15.2311 26.4441 15.6613C26.8266 16.0914 27.3536 16.3662 27.9252 16.4335L28.2002 16.45H29.3752V21.15L32.9002 16.45H37.6002C38.1758 16.4499 38.7313 16.2386 39.1615 15.8561C39.5916 15.4736 39.8664 14.9466 39.9337 14.3749L39.9502 14.1V9.4C39.9501 8.8244 39.7388 8.26885 39.3563 7.83872C38.9738 7.40859 38.4468 7.13379 37.8751 7.06645L37.6002 7.05Z" fill="black"/>
</svg>
