<svg width="35" height="40" viewBox="0 0 35 40" fill="none" xmlns="http://www.w3.org/2000/svg">
<path d="M30.8773 32.6707C30.3096 33.3639 29.5832 33.9101 28.7596 34.263L17.9953 38.8391C16.6434 39.4096 15.1204 39.4208 13.7602 38.8703C12.4001 38.3198 11.3136 37.2525 10.739 35.9024L8.63987 30.9942L8.61509 31.0066L3.85807 19.8296L1.28935 14.7046C1.00025 14.1251 0.841523 13.4894 0.82432 12.842C0.807116 12.1947 0.931851 11.5514 1.18976 10.9574C1.44768 10.3634 1.83251 9.83305 2.31724 9.40363C2.80197 8.97422 3.37484 8.65614 3.99561 8.47173C3.94864 7.55474 4.18697 6.64573 4.67781 5.86974C5.16865 5.09376 5.88789 4.48894 6.73657 4.13849C7.26302 3.92062 7.82724 3.80862 8.397 3.80888H8.52091C8.56222 3.70149 8.60807 3.59658 8.65846 3.49414C8.91553 2.96309 9.27737 2.48953 9.72222 2.10196C10.1671 1.71439 10.6857 1.42083 11.247 1.23893C11.6865 1.09224 12.1467 1.01694 12.61 1.01588L12.6088 1.02332C13.4218 1.02529 14.2187 1.24938 14.9136 1.67138C15.2735 1.36756 15.6956 1.14635 16.1502 1.02332C16.6539 0.886291 17.1838 0.877197 17.6919 0.996859C18.2 1.11652 18.6701 1.36115 19.0597 1.70856C19.486 1.8399 19.8924 2.03321 20.2654 2.28599C20.5814 2.0679 20.942 1.9031 21.3385 1.80769H21.3422C23.1018 1.38762 24.7523 2.55612 25.181 4.16699V4.16947L26.404 8.72575C27.3049 8.5477 28.2387 8.65199 29.0781 9.02438C29.4217 9.18051 29.739 9.37382 30.0297 9.60429C30.4419 9.46152 30.8788 9.40457 31.3137 9.43696C31.7487 9.46935 32.1724 9.5904 32.5588 9.79264C34.2007 10.6452 34.643 12.5509 33.9962 14.0676L33.9912 14.0788L33.9863 14.0887C32.4622 17.4876 31.6691 19.557 31.5638 21.0303V21.0415L31.5625 21.0514C31.546 21.2662 31.5262 21.4909 31.5031 21.7255L33.4435 27.2136C33.8172 28.278 33.7575 29.4466 33.2775 30.4674C32.7974 31.4883 31.9354 32.2796 30.8773 32.6707ZM29.0682 12.2944C28.8669 11.852 28.5146 11.4957 28.0744 11.2895C27.8362 11.1834 27.5793 11.1256 27.3186 11.1193C27.0579 11.113 26.7985 11.1584 26.5554 11.2528C26.3123 11.3473 26.0904 11.489 25.9023 11.6697C25.7143 11.8503 25.5639 12.0665 25.4598 12.3056L23.4772 16.9276V16.9251L23.4747 16.9276L22.4339 13.6563C22.4215 13.5571 22.3967 13.458 22.3595 13.3589L19.6706 5.39125C19.5182 4.94377 19.2196 4.56057 18.823 4.30329C18.5113 4.10581 18.1522 3.99582 17.7834 3.98484C17.5966 3.98382 17.4107 4.01098 17.232 4.06538C16.9815 4.14063 16.7486 4.26547 16.5472 4.4325C16.3459 4.59953 16.1802 4.80534 16.06 5.03768C15.9398 5.27003 15.8675 5.52417 15.8474 5.78501C15.8274 6.04585 15.86 6.30805 15.9433 6.55603L18.3447 13.6686L17.8491 13.8793L14.5034 4.84603C14.356 4.45301 14.0945 4.11299 13.7525 3.8696C13.4253 3.64118 13.0387 3.51288 12.6398 3.50034C12.3256 3.49898 12.0157 3.57356 11.7365 3.71773C11.4573 3.8619 11.217 4.0714 11.0362 4.32839C10.8554 4.58537 10.7394 4.88224 10.698 5.19373C10.6566 5.50521 10.691 5.82208 10.7984 6.11738L14.2333 15.3786L13.8616 15.5273H13.8591L10.2408 7.51016C10.0814 7.15189 9.82294 6.84665 9.49583 6.6304C9.16871 6.41416 8.7866 6.29592 8.39452 6.28962C8.14917 6.28962 7.90507 6.33919 7.67831 6.43212C7.43589 6.53229 7.21617 6.68033 7.03229 6.86737C6.84841 7.05442 6.70415 7.27663 6.60813 7.52072C6.51212 7.76481 6.46632 8.02576 6.47349 8.28795C6.48065 8.55015 6.54063 8.80821 6.64983 9.04669L10.2656 17.0341H10.2644L10.2656 17.0391L9.73278 17.2621L7.0067 11.8223C6.78524 11.3854 6.40613 11.0488 5.946 10.8806V10.8781C5.69295 10.786 5.42378 10.7464 5.15492 10.7618C4.88607 10.7771 4.62315 10.847 4.38222 10.9673C3.91915 11.201 3.56773 11.6089 3.40511 12.1014C3.24248 12.5939 3.28194 13.1308 3.51483 13.5943L6.117 18.7863L9.87157 27.6089L9.89635 27.5965L11.703 31.8417L28.0769 24.8815L28.4895 25.8505L26.6556 26.6312L28.684 31.3994C28.7584 31.3291 28.8294 31.2552 28.8972 31.1776C29.6407 30.3226 29.881 29.0859 29.4102 27.9682L27.0187 22.3549C27.031 22.0452 27.0434 21.7354 27.0434 21.4132C27.0558 19.666 27.8117 17.3489 29.1004 13.9041C29.2987 13.3589 29.2788 12.7827 29.0682 12.2932M27.7869 31.9818L25.6854 27.0413L24.3136 27.6237L26.4065 32.5679L27.7869 31.9818ZM25.4375 32.9805L23.3434 28.0364L21.9593 28.6249L24.0646 33.5641L25.4375 32.9805ZM23.0956 33.9768L20.989 29.0376L19.6037 29.6262L21.7152 34.5629L23.0956 33.9768ZM20.7462 34.9755L18.6347 30.0388L17.2518 30.6261L19.3509 35.5678L20.7462 34.9755ZM18.3819 35.9792L16.2828 31.0388L14.9074 31.6236L17.0028 36.5653L17.0313 36.5529L18.3819 35.9792ZM13.9372 32.035L12.1156 32.8095L13.019 34.9309C13.2624 35.5021 13.6735 35.986 14.1978 36.3186C14.7222 36.6511 15.3352 36.8167 15.9557 36.7933L13.9372 32.035Z" fill="#DBA529"/>
</svg>
