<svg width="64" height="65" viewBox="0 0 64 65" fill="none" xmlns="http://www.w3.org/2000/svg">
<g clip-path="url(#clip0_33_5593)">
<path d="M52.5042 53.7579C51.5879 54.8768 50.4155 55.7583 49.0862 56.3279L31.7122 63.7139C29.5302 64.6347 27.0721 64.6528 24.8767 63.7643C22.6813 62.8758 20.9277 61.1532 20.0002 58.9739L16.6122 51.0519L16.5722 51.0719L8.89422 33.0319L4.74822 24.7599C4.2816 23.8247 4.02541 22.7986 3.99764 21.7537C3.96988 20.7089 4.1712 19.6706 4.58748 18.7119C5.00377 17.7531 5.62491 16.8972 6.40728 16.2041C7.18965 15.511 8.11427 14.9976 9.11622 14.6999C9.0404 13.2199 9.42507 11.7527 10.2173 10.5003C11.0095 9.24779 12.1704 8.27159 13.5402 7.70595C14.3899 7.3543 15.3006 7.17352 16.2202 7.17395H16.4202C16.4869 7.00062 16.5609 6.83128 16.6422 6.66595C17.0571 5.80881 17.6412 5.04447 18.3592 4.41892C19.0772 3.79337 19.9143 3.31954 20.8202 3.02595C21.5296 2.7892 22.2724 2.66766 23.0202 2.66595L23.0182 2.67795C24.3304 2.68113 25.6167 3.04282 26.7382 3.72395C27.3191 3.23358 28.0004 2.87653 28.7342 2.67795C29.5472 2.45678 30.4025 2.44211 31.2225 2.63525C32.0426 2.82838 32.8014 3.22323 33.4302 3.78395C34.1182 3.99595 34.7742 4.30795 35.3762 4.71595C35.8862 4.36395 36.4682 4.09795 37.1082 3.94395H37.1142C39.9542 3.26595 42.6182 5.15195 43.3102 7.75195V7.75595L45.2842 15.1099C46.7382 14.8226 48.2454 14.9909 49.6002 15.5919C50.1549 15.8439 50.6669 16.1559 51.1362 16.5279C51.8014 16.2975 52.5066 16.2056 53.2087 16.2579C53.9107 16.3101 54.5945 16.5055 55.2182 16.8319C57.8682 18.2079 58.5822 21.2839 57.5382 23.7319L57.5302 23.7499L57.5222 23.7659C55.0622 29.2519 53.7822 32.5919 53.6122 34.9699V34.9879L53.6102 35.0039C53.5835 35.3506 53.5516 35.7133 53.5142 36.0919L56.6462 44.9499C57.2493 46.6679 57.153 48.5541 56.3782 50.2018C55.6033 51.8495 54.212 53.1266 52.5042 53.7579ZM49.5842 20.8699C49.2594 20.1558 48.6907 19.5808 47.9802 19.2479C47.5957 19.0767 47.1811 18.9833 46.7603 18.9732C46.3395 18.963 45.9209 19.0363 45.5285 19.1887C45.1362 19.3412 44.778 19.5699 44.4744 19.8615C44.1709 20.1531 43.9282 20.502 43.7602 20.8879L40.5602 28.3479V28.3439L40.5562 28.3479L38.8762 23.0679C38.8562 22.9079 38.8162 22.7479 38.7562 22.5879L34.4162 9.72795C34.1702 9.0057 33.6883 8.3872 33.0482 7.97195C32.5451 7.65321 31.9655 7.47567 31.3702 7.45795C31.0687 7.45631 30.7687 7.50014 30.4802 7.58795C30.0758 7.70939 29.7 7.9109 29.375 8.1805C29.05 8.45009 28.7826 8.78227 28.5885 9.15728C28.3945 9.53229 28.2778 9.94249 28.2455 10.3635C28.2131 10.7845 28.2658 11.2077 28.4002 11.6079L32.2762 23.0879L31.4762 23.4279L26.0762 8.84795C25.8383 8.21359 25.4162 7.66479 24.8642 7.27195C24.336 6.90326 23.712 6.69618 23.0682 6.67595C22.5611 6.67376 22.0609 6.79413 21.6102 7.02683C21.1596 7.25953 20.7719 7.59766 20.48 8.01245C20.1882 8.42723 20.0009 8.90639 19.9341 9.40913C19.8672 9.91188 19.9229 10.4233 20.0962 10.8999L25.6402 25.8479L25.0402 26.0879H25.0362L19.1962 13.1479C18.9389 12.5697 18.5217 12.077 17.9938 11.728C17.4658 11.379 16.849 11.1881 16.2162 11.1779C15.8202 11.1779 15.4262 11.2579 15.0602 11.4079C14.669 11.5696 14.3143 11.8086 14.0175 12.1105C13.7207 12.4124 13.4879 12.771 13.3329 13.165C13.178 13.559 13.104 13.9801 13.1156 14.4033C13.1272 14.8265 13.224 15.243 13.4002 15.6279L19.2362 28.5199H19.2342L19.2362 28.5279L18.3762 28.8879L13.9762 20.1079C13.6188 19.4026 13.0069 18.8594 12.2642 18.5879V18.5839C11.8558 18.4353 11.4213 18.3714 10.9874 18.3961C10.5534 18.4209 10.1291 18.5338 9.74022 18.7279C8.99282 19.1051 8.42561 19.7634 8.16313 20.5583C7.90064 21.3533 7.96433 22.2199 8.34022 22.9679L12.5402 31.3479L18.6002 45.5879L18.6402 45.5679L21.5562 52.4199L47.9842 41.1859L48.6502 42.7499L45.6902 44.0099L48.9642 51.7059C49.0842 51.5926 49.1989 51.4733 49.3082 51.3479C50.5082 49.9679 50.8962 47.9719 50.1362 46.1679L46.2762 37.1079C46.2962 36.6079 46.3162 36.1079 46.3162 35.5879C46.3362 32.7679 47.5562 29.0279 49.6362 23.4679C49.9562 22.5879 49.9242 21.6579 49.5842 20.8679M47.5162 52.6459L44.1242 44.6719L41.9102 45.6119L45.2882 53.5919L47.5162 52.6459ZM43.7242 54.2579L40.3442 46.2779L38.1102 47.2279L41.5082 55.1999L43.7242 54.2579ZM39.9442 55.8659L36.5442 47.8939L34.3082 48.8439L37.7162 56.8119L39.9442 55.8659ZM36.1522 57.4779L32.7442 49.5099L30.5122 50.4579L33.9002 58.4339L36.1522 57.4779ZM32.3362 59.0979L28.9482 51.1239L26.7282 52.0679L30.1102 60.0439L30.1562 60.0239L32.3362 59.0979ZM25.1622 52.7319L22.2222 53.9819L23.6802 57.4059C24.0731 58.3279 24.7366 59.109 25.583 59.6457C26.4293 60.1825 27.4187 60.4496 28.4202 60.4119L25.1622 52.7319Z" fill="white"/>
</g>
<defs>
<clipPath id="clip0_33_5593">
<rect width="64" height="64" fill="white" transform="translate(0 0.5)"/>
</clipPath>
</defs>
</svg>
