<svg width="39" height="55" viewBox="0 0 39 55" fill="none" xmlns="http://www.w3.org/2000/svg">
<g clip-path="url(#clip0_36_6944)">
<g clip-path="url(#clip1_36_6944)">
<path d="M31.3882 40.2085C30.8404 40.8773 30.1395 41.4044 29.3448 41.7449L18.9582 46.1604C17.6537 46.7109 16.1842 46.7217 14.8717 46.1905C13.5593 45.6594 12.5109 44.6295 11.9564 43.3267L9.93101 38.5908L9.9071 38.6027L5.31699 27.8179L2.83841 22.8727C2.55945 22.3136 2.40629 21.7002 2.38969 21.0755C2.37309 20.4509 2.49345 19.8302 2.74232 19.257C2.99118 18.6839 3.36251 18.1721 3.83023 17.7578C4.29796 17.3434 4.85072 17.0365 5.44971 16.8586C5.40439 15.9738 5.63435 15.0967 6.10797 14.3479C6.58159 13.5991 7.27559 13.0155 8.09449 12.6774C8.60248 12.4672 9.1469 12.3591 9.69667 12.3593H9.81623C9.85609 12.2557 9.90033 12.1545 9.94895 12.0557C10.197 11.5432 10.5461 11.0863 10.9754 10.7123C11.4046 10.3383 11.9051 10.0551 12.4467 9.87956C12.8708 9.73803 13.3148 9.66537 13.7619 9.66435L13.7607 9.67152C14.5451 9.67342 15.3141 9.88965 15.9846 10.2968C16.3319 10.0037 16.7392 9.79023 17.1779 9.67152C17.6639 9.5393 18.1752 9.53053 18.6654 9.64599C19.1557 9.76145 19.6093 9.9975 19.9853 10.3327C20.3966 10.4595 20.7887 10.646 21.1486 10.8899C21.4535 10.6795 21.8015 10.5204 22.1841 10.4284H22.1876C23.8855 10.023 25.4781 11.1505 25.8918 12.7049V12.7073L27.0719 17.1037C27.9411 16.9319 28.8422 17.0325 29.6521 17.3918C29.9837 17.5425 30.2898 17.729 30.5704 17.9514C30.968 17.8136 31.3896 17.7587 31.8093 17.79C32.229 17.8212 32.6378 17.938 33.0107 18.1332C34.5949 18.9558 35.0218 20.7947 34.3976 22.2582L34.3929 22.2689L34.3881 22.2785C32.9174 25.5582 32.1522 27.5549 32.0506 28.9765V28.9873L32.0494 28.9968C32.0334 29.2041 32.0143 29.4209 31.992 29.6473L33.8644 34.9428C34.2249 35.9699 34.1673 37.0975 33.7041 38.0825C33.2409 39.0675 32.4092 39.8311 31.3882 40.2085ZM29.6425 20.5472C29.4483 20.1202 29.1084 19.7765 28.6836 19.5775C28.4538 19.4751 28.2059 19.4193 27.9543 19.4132C27.7028 19.4072 27.4525 19.451 27.2179 19.5421C26.9834 19.6333 26.7692 19.7699 26.5878 19.9443C26.4063 20.1187 26.2612 20.3272 26.1608 20.5579L24.2478 25.0177V25.0153L24.2454 25.0177L23.241 21.8612C23.2291 21.7655 23.2051 21.6699 23.1693 21.5742L20.5747 13.8862C20.4276 13.4544 20.1396 13.0847 19.7569 12.8364C19.4561 12.6459 19.1096 12.5397 18.7537 12.5291C18.5735 12.5281 18.3941 12.5543 18.2217 12.6068C17.9799 12.6794 17.7552 12.7999 17.5609 12.9611C17.3667 13.1223 17.2068 13.3208 17.0908 13.545C16.9748 13.7692 16.905 14.0145 16.8857 14.2661C16.8663 14.5178 16.8978 14.7708 16.9782 15.0101L19.2954 21.8731L18.8171 22.0764L15.5888 13.3601C15.4466 12.9809 15.1943 12.6528 14.8643 12.4179C14.5485 12.1975 14.1755 12.0737 13.7906 12.0616C13.4874 12.0603 13.1884 12.1323 12.919 12.2714C12.6496 12.4105 12.4178 12.6127 12.2433 12.8606C12.0688 13.1086 11.9568 13.395 11.9169 13.6956C11.8769 13.9962 11.9102 14.3019 12.0138 14.5868L15.3282 23.5231L14.9695 23.6666H14.9671L11.4758 15.9308C11.322 15.5851 11.0726 15.2905 10.7569 15.0819C10.4413 14.8732 10.0726 14.7591 9.69427 14.753C9.45754 14.753 9.22199 14.8009 9.00319 14.8905C8.76928 14.9872 8.55727 15.13 8.37984 15.3105C8.20242 15.491 8.06321 15.7054 7.97057 15.9409C7.87792 16.1765 7.83373 16.4283 7.84064 16.6813C7.84756 16.9343 7.90543 17.1833 8.0108 17.4134L11.4997 25.1205H11.4985L11.4997 25.1253L10.9856 25.3405L8.35514 20.0916C8.14146 19.67 7.77565 19.3452 7.33167 19.1829V19.1805C7.08749 19.0917 6.82777 19.0535 6.56835 19.0683C6.30892 19.0831 6.05523 19.1506 5.82275 19.2666C5.37594 19.4921 5.03685 19.8856 4.87993 20.3609C4.72301 20.8361 4.76109 21.3542 4.9858 21.8014L7.49667 26.8112L11.1195 35.3242L11.1434 35.3123L12.8867 39.4086L28.686 32.6926L29.0842 33.6276L27.3146 34.3809L29.2719 38.9817C29.3436 38.914 29.4122 38.8426 29.4775 38.7677C30.1949 37.9427 30.4269 36.7495 29.9725 35.671L27.6649 30.2547C27.6769 29.9558 27.6888 29.6568 27.6888 29.346C27.7008 27.6601 28.4301 25.4242 29.6736 22.1003C29.8649 21.5742 29.8458 21.0183 29.6425 20.546M28.4062 39.5437L26.3784 34.7766L25.0548 35.3386L27.0743 40.1092L28.4062 39.5437ZM26.1393 40.5074L24.1186 35.7367L22.7831 36.3047L24.8145 41.0705L26.1393 40.5074ZM23.8795 41.4687L21.8469 36.7028L20.5101 37.2708L22.5475 42.0342L23.8795 41.4687ZM21.6125 42.4324L19.5751 37.6689L18.2408 38.2356L20.2662 43.0039L21.6125 42.4324ZM19.3312 43.4009L17.3058 38.6338L15.9786 39.1981L18.0005 43.9664L18.028 43.9545L19.3312 43.4009ZM15.0424 39.5951L13.2848 40.3424L14.1564 42.3893C14.3913 42.9405 14.788 43.4075 15.294 43.7283C15.8 44.0492 16.3914 44.2089 16.9901 44.1864L15.0424 39.5951Z" fill="black"/>
</g>
</g>
<defs>
<clipPath id="clip0_36_6944">
<rect width="38.2609" height="55" fill="white"/>
</clipPath>
<clipPath id="clip1_36_6944">
<rect width="38.2609" height="38.2609" fill="white" transform="translate(0 8.36963)"/>
</clipPath>
</defs>
</svg>
