<svg width="22" height="22" viewBox="0 0 22 22" fill="none" xmlns="http://www.w3.org/2000/svg">
<g clip-path="url(#clip0_43_7559)">
<path fill-rule="evenodd" clip-rule="evenodd" d="M12.7231 13.4139C13.7779 13.4139 14.6365 14.2663 14.6365 15.3141V18.0089C14.6365 18.2341 14.817 18.4146 15.0482 18.4198H16.7181C18.0339 18.4198 19.1036 17.3633 19.1036 16.0649V8.42193C19.0975 7.97513 18.8846 7.5546 18.5193 7.27513L12.7433 2.66867C11.9679 2.05453 10.8833 2.05453 10.1054 2.67042L4.36875 7.27338C3.98941 7.56161 3.77652 7.98213 3.77214 8.43682V16.0649C3.77214 17.3633 4.84184 18.4198 6.15772 18.4198H7.84331C8.08073 18.4198 8.27347 18.2315 8.27347 18.0002C8.27347 17.9494 8.2796 17.8986 8.29011 17.8504V15.3141C8.29011 14.2724 9.14342 13.4209 10.1903 13.4139H12.7231ZM16.7181 19.734H15.0325C14.067 19.7112 13.3224 18.9534 13.3224 18.0089V15.3141C13.3224 14.9908 13.0534 14.728 12.7231 14.728H10.1947C9.87145 14.7298 9.60424 14.9935 9.60424 15.3141V18.0002C9.60424 18.0659 9.59548 18.129 9.57709 18.1885C9.48247 19.0559 8.7413 19.734 7.84331 19.734H6.15772C4.11731 19.734 2.45801 18.0878 2.45801 16.0649V8.43069C2.46677 7.55986 2.86802 6.76262 3.561 6.23785L9.28622 1.64277C10.5469 0.644036 12.3035 0.644036 13.5615 1.64102L19.3279 6.24048C20.0051 6.75649 20.4064 7.55198 20.4178 8.41229V16.0649C20.4178 18.0878 18.7585 19.734 16.7181 19.734Z" fill="black"/>
</g>
<defs>
<clipPath id="clip0_43_7559">
<rect width="21.0261" height="21.0261" fill="white" transform="translate(0.705566 0.0173798)"/>
</clipPath>
</defs>
</svg>
