<?xml version="1.0" encoding="utf-8"?>
<svg viewBox="76.748 187.313 24.9133 32.275" xmlns="http://www.w3.org/2000/svg">
  <path fill-rule="evenodd" clip-rule="evenodd" d="M 80.846 191.471 C 82.631 189.105 85.404 187.313 89.205 187.313 C 93.005 187.313 95.777 189.105 97.563 191.471 C 99.315 193.792 100.131 196.673 100.131 199.019 C 100.131 199.682 100.111 200.175 100.096 200.546 C 100.093 200.621 100.091 200.692 100.088 200.758 C 100.074 201.154 100.078 201.323 100.103 201.484 C 100.164 201.871 100.358 202.361 101.223 204.32 C 101.233 204.344 101.243 204.368 101.252 204.392 C 101.899 206.102 101.758 207.695 100.978 209.047 C 100.24 210.327 99.009 211.253 97.71 211.92 C 95.111 213.252 91.693 213.82 89.205 213.82 C 86.716 213.82 83.298 213.252 80.699 211.92 C 79.399 211.253 78.169 210.327 77.431 209.046 C 76.651 207.694 76.511 206.101 77.157 204.392 C 77.166 204.368 77.176 204.344 77.187 204.32 C 78.052 202.361 78.245 201.871 78.306 201.484 C 78.332 201.323 78.336 201.154 78.321 200.758 C 78.319 200.692 78.316 200.621 78.313 200.546 C 78.298 200.175 78.279 199.682 78.279 199.019 C 78.279 196.673 79.094 193.792 80.846 191.471 Z M 83.034 193.215 C 81.678 195.012 81.048 197.272 81.048 199.019 C 81.048 199.619 81.065 200.051 81.08 200.419 C 81.083 200.499 81.086 200.576 81.089 200.651 C 81.104 201.062 81.113 201.476 81.04 201.938 C 80.908 202.78 80.509 203.684 79.759 205.382 L 79.725 205.458 C 79.382 206.389 79.499 207.051 79.813 207.595 C 80.172 208.218 80.879 208.831 81.935 209.373 C 84.047 210.456 87.013 210.974 89.205 210.974 C 91.395 210.974 94.361 210.456 96.473 209.373 C 97.529 208.831 98.237 208.218 98.596 207.595 C 98.91 207.051 99.027 206.388 98.684 205.457 L 98.651 205.382 C 97.901 203.684 97.502 202.78 97.369 201.938 C 97.297 201.476 97.306 201.062 97.321 200.651 C 97.324 200.576 97.327 200.499 97.33 200.419 C 97.344 200.051 97.362 199.619 97.362 199.019 C 97.362 197.272 96.731 195.012 95.375 193.215 C 94.053 191.463 92.054 190.159 89.205 190.159 C 86.354 190.159 84.356 191.463 83.034 193.215 Z" fill="black" transform="matrix(0.9999999999999999, 0, 0, 0.9999999999999999, -7.105427357601002e-15, 0)"/>
  <path fill-rule="evenodd" clip-rule="evenodd" d="M 84.817 215.422 C 85.387 214.899 86.263 214.949 86.772 215.536 C 88.176 217.151 90.241 217.138 91.638 215.534 C 92.148 214.949 93.023 214.899 93.593 215.423 C 94.163 215.948 94.211 216.847 93.701 217.433 C 91.215 220.287 87.223 220.326 84.707 217.432 C 84.197 216.845 84.247 215.946 84.817 215.422 Z" fill="black" transform="matrix(0.9999999999999999, 0, 0, 0.9999999999999999, -7.105427357601002e-15, 0)"/>
</svg>