<svg width="36" height="36" viewBox="0 0 36 36" fill="none" xmlns="http://www.w3.org/2000/svg">
<path fill-rule="evenodd" clip-rule="evenodd" d="M29.76 27.2891C29.76 32.2331 22.98 32.8046 17.8815 32.8046L17.5166 32.8043C14.2683 32.7964 6 32.5914 6 27.2591C6 22.416 12.5075 21.7688 17.5672 21.7444L18.2463 21.744C21.4945 21.7518 29.76 21.9569 29.76 27.2891ZM17.8815 23.9936C11.49 23.9936 8.25 25.0916 8.25 27.2591C8.25 29.4461 11.49 30.5546 17.8815 30.5546C24.2715 30.5546 27.51 29.4566 27.51 27.2891C27.51 25.1021 24.2715 23.9936 17.8815 23.9936ZM17.8815 2.99904C22.2735 2.99904 25.845 6.57204 25.845 10.964C25.845 15.356 22.2735 18.9275 17.8815 18.9275H17.8335C13.4505 18.914 9.9 15.3395 9.91495 10.9595C9.91495 6.57204 13.488 2.99904 17.8815 2.99904ZM17.8815 5.14104C14.67 5.14104 12.057 7.75254 12.057 10.964C12.0465 14.165 14.64 16.775 17.838 16.787L17.8815 17.858V16.787C21.0915 16.787 23.703 14.174 23.703 10.964C23.703 7.75254 21.0915 5.14104 17.8815 5.14104Z" fill="black"/>
</svg>
