<svg width="22" height="21" viewBox="0 0 22 21" fill="none" xmlns="http://www.w3.org/2000/svg">
<path fill-rule="evenodd" clip-rule="evenodd" d="M3.28974 9.85425L3.63524 9.62567C4.15348 9.28279 4.49636 9.05508 4.7389 8.85179C4.96923 8.65898 5.05648 8.52985 5.10185 8.40945C5.14722 8.28905 5.16816 8.13463 5.12366 7.83712C5.07655 7.52303 4.97098 7.12606 4.81045 6.52493L4.66474 5.97964C3.87794 7.12965 3.40407 8.46467 3.28974 9.85338M5.68902 4.75819L5.70996 4.82275L6.08424 6.22044C6.23256 6.77707 6.35907 7.24733 6.41753 7.64343C6.44806 7.84671 6.46377 8.04476 6.45417 8.24281L8.63533 9.16152C8.68483 9.11187 8.73727 9.06526 8.79237 9.02192L10.396 7.79698C10.482 7.73126 10.5728 7.676 10.6682 7.63121V5.26684C10.4838 5.20142 10.3062 5.11845 10.1377 5.01906C9.79047 4.81926 9.39874 4.53048 8.93633 4.18847L7.73407 3.30205C6.98091 3.67866 6.29097 4.17021 5.68902 4.75906M9.18498 2.74716L9.68403 3.11534C10.184 3.48439 10.5155 3.72781 10.7903 3.88572C11.0503 4.03492 11.2004 4.07243 11.3295 4.07418C11.4578 4.07505 11.6087 4.04102 11.8722 3.89707C12.1496 3.74526 12.4864 3.50882 12.9942 3.15111L13.5368 2.76897C12.8168 2.56322 12.0714 2.45926 11.3225 2.46012C10.6003 2.4592 9.88134 2.55575 9.18498 2.74716ZM14.9834 3.33869C14.9572 3.36365 14.9295 3.38696 14.9005 3.40849L13.7192 4.24082C13.248 4.57235 12.8511 4.85329 12.5003 5.04523C12.3285 5.13946 12.1549 5.21972 11.9769 5.27818V7.63121C12.0717 7.67658 12.1621 7.73213 12.2482 7.79785L13.8509 9.02367C13.9085 9.06729 13.962 9.1144 14.0115 9.16501L16.245 8.24019C16.2362 8.04389 16.2519 7.84671 16.2825 7.6443C16.3409 7.2482 16.4674 6.77794 16.6158 6.22218L16.99 4.8245L16.997 4.79919C16.4049 4.21175 15.7257 3.71913 14.9834 3.33869ZM18.0196 6.03897L17.8896 6.52493C17.729 7.12606 17.6235 7.5239 17.5763 7.83712C17.5327 8.13375 17.5528 8.28905 17.5982 8.40945C17.6435 8.52985 17.7308 8.65898 17.9611 8.85179C18.2036 9.05508 18.5457 9.28279 19.0648 9.62567L19.3509 9.81499C19.2332 8.46406 18.7752 7.16497 18.0196 6.03897ZM20.6849 10.8811C20.689 10.7648 20.691 10.6479 20.691 10.5304C20.691 5.35146 16.4971 1.15142 11.3225 1.15142C6.14706 1.15142 1.95312 5.35146 1.95312 10.5304C1.95312 15.7094 6.14706 19.9094 11.3225 19.9094C16.2301 19.9094 20.2548 16.1316 20.6579 11.3244C20.718 11.1842 20.7281 11.0274 20.6849 10.8811ZM19.3379 11.3758L18.3118 10.6962C17.832 10.3795 17.4254 10.1116 17.1192 9.85338C16.9745 9.73412 16.8407 9.60214 16.7196 9.45903L14.4398 10.403C14.4282 10.4987 14.4086 10.5933 14.3814 10.6857L13.7523 12.7247C13.7302 12.7962 13.7035 12.8648 13.6721 12.9306L14.9528 14.412C15.1491 14.3466 15.3542 14.3073 15.5671 14.2829C15.9649 14.2375 16.4517 14.2375 17.0267 14.2375H18.482C18.9436 13.3452 19.2336 12.3742 19.337 11.375M17.6348 15.5462H17.0625C16.4404 15.5462 16.0295 15.5471 15.7154 15.5829C15.4179 15.6178 15.2739 15.6762 15.1701 15.7521C15.0654 15.8271 14.9633 15.9441 14.8368 16.2171C14.7033 16.5051 14.5725 16.895 14.3761 17.4848L14.179 18.0781C15.5374 17.5604 16.7311 16.6857 17.6339 15.5462M12.6609 18.4882L13.1451 17.0373C13.3266 16.4902 13.481 16.0287 13.6494 15.6657C13.7244 15.5023 13.8102 15.3487 13.9068 15.2051L12.6556 13.7568C12.5382 13.7865 12.4172 13.8013 12.2927 13.8013H10.3471C10.2308 13.8013 10.1179 13.7888 10.0086 13.7638L8.89794 15.1824C9.00147 15.3319 9.0925 15.4933 9.17102 15.6666C9.34028 16.0296 9.49383 16.4911 9.67618 17.0381L10.1691 18.5187C10.9974 18.6375 11.8391 18.6275 12.6644 18.489M8.66848 18.1531L8.44688 17.4857C8.2497 16.8959 8.11883 16.505 7.98534 16.218C7.85884 15.9458 7.75676 15.828 7.65294 15.753C7.54824 15.6771 7.40516 15.6178 7.10764 15.5837C6.79356 15.5488 6.38175 15.5471 5.76056 15.5471H5.00675C5.9558 16.7444 7.22487 17.648 8.66674 18.1531M4.17355 14.2619C4.23105 14.2466 4.29027 14.2387 4.34978 14.2384H5.79459C6.37041 14.2384 6.85638 14.2384 7.25422 14.2838C7.45925 14.3073 7.65555 14.344 7.844 14.405L8.9817 12.955C8.94578 12.8808 8.91517 12.8041 8.89009 12.7255L8.26104 10.6866C8.2333 10.593 8.21345 10.4973 8.20171 10.4004L5.97693 9.46252C5.85625 9.60495 5.72311 9.73634 5.57909 9.85513C5.27198 10.1116 4.86628 10.3795 4.38643 10.6971L3.30806 11.4099C3.41887 12.4306 3.71812 13.393 4.17267 14.2628M11.3199 8.79334C11.2725 8.79384 11.2266 8.80976 11.189 8.83871L9.58719 10.0628C9.55165 10.0899 9.52531 10.1273 9.51173 10.1699C9.49815 10.2125 9.498 10.2583 9.51128 10.301L10.1412 12.3399C10.1549 12.3841 10.1823 12.4229 10.2195 12.4505C10.2567 12.4781 10.3017 12.4931 10.348 12.4935H12.2936C12.34 12.4933 12.3852 12.4783 12.4226 12.4507C12.4599 12.4231 12.4875 12.3843 12.5012 12.3399L13.1311 10.301C13.1444 10.2583 13.1443 10.2125 13.1307 10.1699C13.1171 10.1273 13.0908 10.0899 13.0552 10.0628L11.4525 8.83696C11.4148 8.80864 11.3688 8.79334 11.3216 8.79334" fill="black"/>
</svg>
