<svg width="25" height="25" viewBox="0 0 25 25" fill="none" xmlns="http://www.w3.org/2000/svg">
<path d="M14.5349 0.806945C13.6456 0.812609 12.7054 1.59029 12.3825 2.83525C12.0144 4.25976 12.6487 5.5455 13.6343 5.80038C14.6198 6.05527 15.7979 5.23964 16.1661 3.81796C16.5343 2.39288 15.9056 1.10941 14.9144 0.853957C14.7897 0.822238 14.6651 0.806379 14.5349 0.806945ZM3.14104 1.89784L2.4874 2.97458C4.32256 3.88027 6.06143 4.87148 7.94756 5.60781C8.48564 5.39257 9.0124 5.16601 9.5335 4.92812C7.25654 4.05585 5.18916 3.01989 3.14104 1.89784ZM11.5272 5.07538C8.81982 6.51405 5.98213 7.43163 2.82498 8.53613L3.28264 9.46503C6.22568 8.55312 9.58447 7.60155 12.4108 6.29316C12.02 5.98163 11.7255 5.56249 11.5272 5.07538ZM13.2435 7.04648C11.969 7.6582 10.5927 8.19062 9.19932 8.67206C8.04951 11.2549 7.63037 14.0473 7.11494 16.6074L6.996 17.2021L1.27416 14.9705L0.366211 16.4092L7.74365 19.8473C7.80029 19.768 7.83994 19.7057 7.90791 19.5924C8.12881 19.2129 8.429 18.6521 8.76885 17.9725C9.44287 16.6244 10.2812 14.8062 11.0571 12.9824C11.8388 11.1643 12.5524 9.33476 12.9772 7.97538C13.0849 7.62988 13.1755 7.31835 13.2435 7.04648ZM11.4366 14.6703C11.1251 15.3783 10.8079 16.075 10.5021 16.7264C11.9181 18.8447 13.7306 21.201 15.8772 22.9115L17.197 21.9146C15.1692 19.666 13.0679 17.1398 11.4366 14.6703ZM22.1077 18.8164C21.3867 18.8164 20.6951 19.1028 20.1853 19.6127C19.6754 20.1226 19.389 20.8141 19.389 21.5352C19.389 22.2562 19.6754 22.9477 20.1853 23.4576C20.6951 23.9675 21.3867 24.2539 22.1077 24.2539C22.8288 24.2539 23.5203 23.9675 24.0302 23.4576C24.54 22.9477 24.8265 22.2562 24.8265 21.5352C24.8265 20.8141 24.54 20.1226 24.0302 19.6127C23.5203 19.1028 22.8288 18.8164 22.1077 18.8164Z" fill="black"/>
</svg>
